{
  "accessors": [
    {
      "bufferView": 2,
      "componentType": 5126,
      "count": 1270,
      "max": [
        4.095141410827637,
        10.012165069580078,
        4.153744220733643
      ],
      "min": [
        -3.7986748218536377,
        0.5481863021850586,
        -3.7378687858581543
      ],
      "type": "VEC3"
    },
    {
      "bufferView": 2,
      "byteOffset": 15240,
      "componentType": 5126,
      "count": 1270,
      "max": [
        0.9999929070472717,
        0.999769389629364,
        0.9944196343421936
      ],
      "min": [
        -0.9997007250785828,
        -0.39783746004104614,
        -0.9987081289291382
      ],
      "type": "VEC3"
    },
    {
      "bufferView": 1,
      "componentType": 5126,
      "count": 1270,
      "max": [
        1.0,
        1.0
      ],
      "min": [
        0.0,
        0.0
      ],
      "type": "VEC2"
    },
    {
      "bufferView": 0,
      "componentType": 5125,
      "count": 6276,
      "type": "SCALAR"
    },
    {
      "bufferView": 2,
      "byteOffset": 30480,
      "componentType": 5126,
      "count": 141,
      "max": [
        0.9040057063102722,
        2.064946174621582,
        0.9040058255195618
      ],
      "min": [
        -0.9040059447288513,
        1.9802286624908447,
        -0.9040061831474304
      ],
      "type": "VEC3"
    },
    {
      "bufferView": 2,
      "byteOffset": 32172,
      "componentType": 5126,
      "count": 141,
      "max": [
        0.2180054783821106,
        0.9999179840087891,
        0.23926784098148346
      ],
      "min": [
        -0.23926790058612823,
        0.9704170227050781,
        -0.21633195877075195
      ],
      "type": "VEC3"
    },
    {
      "bufferView": 1,
      "byteOffset": 10160,
      "componentType": 5126,
      "count": 141,
      "max": [
        0.9345006942749023,
        0.9205337762832642
      ],
      "min": [
        0.0654992163181305,
        0.051532208919525146
      ],
      "type": "VEC2"
    },
    {
      "bufferView": 0,
      "byteOffset": 25104,
      "componentType": 5125,
      "count": 576,
      "type": "SCALAR"
    },
    {
      "bufferView": 2,
      "byteOffset": 33864,
      "componentType": 5126,
      "count": 271,
      "max": [
        1.2094979286193848,
        2.2057223320007324,
        1.2094981670379639
      ],
      "min": [
        -1.2094981670379639,
        -0.0025856494903564453,
        -1.209498405456543
      ],
      "type": "VEC3"
    },
    {
      "bufferView": 2,
      "byteOffset": 37116,
      "componentType": 5126,
      "count": 271,
      "max": [
        0.9961903095245361,
        1.0,
        0.9961903095245361
      ],
      "min": [
        -0.9961903095245361,
        -0.9323269128799438,
        -0.9961903095245361
      ],
      "type": "VEC3"
    },
    {
      "bufferView": 1,
      "byteOffset": 11288,
      "componentType": 5126,
      "count": 271,
      "max": [
        1.5000317096710205,
        1.0
      ],
      "min": [
        -0.4999682307243347,
        -0.0977114662528038
      ],
      "type": "VEC2"
    },
    {
      "bufferView": 0,
      "byteOffset": 27408,
      "componentType": 5125,
      "count": 1200,
      "type": "SCALAR"
    },
    {
      "bufferView": 2,
      "byteOffset": 40368,
      "componentType": 5126,
      "count": 64,
      "max": [
        0.21285606920719147,
        2.5865886211395264,
        0.21285606920719147
      ],
      "min": [
        -0.21285609900951385,
        1.9070045948028564,
        -0.21285617351531982
      ],
      "type": "VEC3"
    },
    {
      "bufferView": 2,
      "byteOffset": 41136,
      "componentType": 5126,
      "count": 64,
      "max": [
        0.9907299876213074,
        0.8185892701148987,
        0.9907300472259521
      ],
      "min": [
        -0.99103844165802,
        0.03582062944769859,
        -0.9907892942428589
      ],
      "type": "VEC3"
    },
    {
      "bufferView": 1,
      "byteOffset": 13456,
      "componentType": 5126,
      "count": 64,
      "max": [
        0.6249997615814209,
        0.6884400248527527
      ],
      "min": [
        0.375,
        0.3125
      ],
      "type": "VEC2"
    },
    {
      "bufferView": 0,
      "byteOffset": 32208,
      "componentType": 5125,
      "count": 300,
      "type": "SCALAR"
    }
  ],
  "asset": {
    "extras": {
      "author": "Gonçalo Miranda (https://sketchfab.com/GoncMira02)",
      "license": "CC-BY-4.0 (http://creativecommons.org/licenses/by/4.0/)",
      "source": "https://sketchfab.com/3d-models/potted-plant-1a68fc8877b847c6834ea29a7e65de7a",
      "title": "Potted Plant"
    },
    "generator": "Sketchfab-10.99.0",
    "version": "2.0"
  },
  "bufferViews": [
    {
      "buffer": 0,
      "byteLength": 33408,
      "name": "floatBufferViews",
      "target": 34963
    },
    {
      "buffer": 0,
      "byteLength": 13968,
      "byteOffset": 33408,
      "byteStride": 8,
      "name": "floatBufferViews",
      "target": 34962
    },
    {
      "buffer": 0,
      "byteLength": 41904,
      "byteOffset": 47376,
      "byteStride": 12,
      "name": "floatBufferViews",
      "target": 34962
    }
  ],
  "buffers": [
    {
      "byteLength": 89280,
      "uri": "scene.bin"
    }
  ],
  "images": [
    {
      "uri": "textures/Leaf_baseColor.png"
    },
    {
      "uri": "textures/Dirt_baseColor.png"
    },
    {
      "uri": "textures/material_baseColor.png"
    },
    {
      "uri": "textures/Plant_baseColor.jpeg"
    }
  ],
  "materials": [
    {
      "alphaMode": "BLEND",
      "doubleSided": true,
      "name": "Leaf",
      "pbrMetallicRoughness": {
        "baseColorTexture": {
          "index": 0
        },
        "metallicFactor": 0.0,
        "roughnessFactor": 0.6
      }
    },
    {
      "doubleSided": true,
      "name": "Dirt",
      "pbrMetallicRoughness": {
        "baseColorTexture": {
          "index": 1
        },
        "metallicFactor": 0.0
      }
    },
    {
      "doubleSided": true,
      "name": "material",
      "pbrMetallicRoughness": {
        "baseColorTexture": {
          "index": 2
        },
        "metallicFactor": 0.0,
        "roughnessFactor": 0.9
      }
    },
    {
      "doubleSided": true,
      "name": "Plant",
      "pbrMetallicRoughness": {
        "baseColorFactor": [
          0.28085967350407803,
          0.28085967350407803,
          0.28085967350407803,
          1.0
        ],
        "baseColorTexture": {
          "index": 3
        },
        "metallicFactor": 0.0,
        "roughnessFactor": 0.6
      }
    }
  ],
  "meshes": [
    {
      "name": "Potted_Plant_Leaf_0",
      "primitives": [
        {
          "attributes": {
            "NORMAL": 1,
            "POSITION": 0,
            "TEXCOORD_0": 2
          },
          "indices": 3,
          "material": 0,
          "mode": 4
        }
      ]
    },
    {
      "name": "Potted_Plant_Dirt_0",
      "primitives": [
        {
          "attributes": {
            "NORMAL": 5,
            "POSITION": 4,
            "TEXCOORD_0": 6
          },
          "indices": 7,
          "material": 1,
          "mode": 4
        }
      ]
    },
    {
      "name": "Potted_Plant_Pot_0",
      "primitives": [
        {
          "attributes": {
            "NORMAL": 9,
            "POSITION": 8,
            "TEXCOORD_0": 10
          },
          "indices": 11,
          "material": 2,
          "mode": 4
        }
      ]
    },
    {
      "name": "Potted_Plant_Plant_0",
      "primitives": [
        {
          "attributes": {
            "NORMAL": 13,
            "POSITION": 12,
            "TEXCOORD_0": 14
          },
          "indices": 15,
          "material": 3,
          "mode": 4
        }
      ]
    }
  ],
  "nodes": [
    {
      "children": [
        1
      ],
      "matrix": [
        1.0,
        0.0,
        0.0,
        0.0,
        0.0,
        2.220446049250313e-16,
        -1.0,
        0.0,
        0.0,
        1.0,
        2.220446049250313e-16,
        0.0,
        0.0,
        0.0,
        0.0,
        1.0
      ],
      "name": "Sketchfab_model"
    },
    {
      "children": [
        2
      ],
      "matrix": [
        1.0,
        0.0,
        0.0,
        0.0,
        0.0,
        0.0,
        1.0,
        0.0,
        0.0,
        -1.0,
        0.0,
        0.0,
        0.0,
        0.0,
        0.0,
        1.0
      ],
      "name": "fdc395b1025d4d2c850f03cf13c085be.fbx"
    },
    {
      "children": [
        3
      ],
      "name": "RootNode"
    },
    {
      "children": [
        4,
        5,
        6,
        7
      ],
      "name": "Potted_Plant"
    },
    {
      "mesh": 0,
      "name": "Potted_Plant_Leaf_0"
    },
    {
      "mesh": 1,
      "name": "Potted_Plant_Dirt_0"
    },
    {
      "mesh": 2,
      "name": "Potted_Plant_Pot_0"
    },
    {
      "mesh": 3,
      "name": "Potted_Plant_Plant_0"
    }
  ],
  "samplers": [
    {
      "magFilter": 9729,
      "minFilter": 9987,
      "wrapS": 10497,
      "wrapT": 10497
    }
  ],
  "scene": 0,
  "scenes": [
    {
      "name": "Sketchfab_Scene",
      "nodes": [
        0
      ]
    }
  ],
  "textures": [
    {
      "sampler": 0,
      "source": 0
    },
    {
      "sampler": 0,
      "source": 1
    },
    {
      "sampler": 0,
      "source": 2
    },
    {
      "sampler": 0,
      "source": 3
    }
  ]
}
